<?xml version="1.0"?>
<svg version="1.1" xmlns="http://www.w3.org/2000/svg" width="400px" height="200px" style=""><path fill="#ffffff" d="M27.72,128.896c0,0.896-0.392,1.344-1.344,1.344l-20.776,0c-1.12,0-1.512-0.28-1.512-1.512l0-35.84c0-0.896,0.392-1.4,1.288-1.4l21.112,0c0.896,0,1.176,0.336,1.176,0.952l0,0.336l-0.392,3.36c-0.112,1.008-0.728,1.176-1.904,1.176l-14.056,0l0,10.136l12.936,0c1.064,0,1.4,0.448,1.4,1.232l0,3.192c0,0.952-0.392,1.344-1.344,1.344l-12.992,0l0,11.2l15.008,0c0.952,0,1.4,0.392,1.4,1.288l0,3.192z M61.516,103.864c0,0.168-0.056,0.336-0.112,0.56l-11.032,29.008c-2.52,6.664-5.656,9.016-12.376,9.016c-1.064,0-2.016-0.056-2.968-0.28c-0.616-0.112-0.84-0.448-0.84-0.952c0-0.168,0.056-0.28,0.056-0.504l0.392-2.912c0.112-0.728,0.392-1.008,1.008-1.008l0.336,0c0.672,0.056,1.344,0.168,1.904,0.168c3.472,0,4.928-1.232,6.048-3.864l1.064-2.52l-10.192-26.264c-0.056-0.168-0.112-0.28-0.112-0.448c0-0.448,0.336-0.784,0.84-0.784l5.376,0c0.784,0,1.176,0.392,1.4,0.952l6.216,18.536l5.88-18.2c0.28-0.896,0.728-1.288,1.68-1.288l4.536,0c0.56,0,0.896,0.336,0.896,0.784z M94.472,116.632c0,8.064-4.928,14.28-13.664,14.28c-9.128,0-13.328-6.16-13.328-14.336c0-8.064,4.928-14.224,13.664-14.224c9.128,0,13.328,6.048,13.328,14.28z M87.472,116.632c0-4.592-1.456-8.96-6.384-8.96c-4.984,0-6.608,4.312-6.608,8.792c0,4.592,1.4,9.128,6.384,9.128c4.928,0,6.608-4.368,6.608-8.96z M128.828,116.688c0,7.728-3.976,14.224-12.32,14.224c-2.52,0-5.544-1.456-7.112-3.192l-0.224,1.848c-0.056,0.504-0.504,0.672-1.232,0.672l-3.36,0c-0.952,0-1.344-0.448-1.344-1.4l0-36.512c0-0.896,0.224-1.4,1.12-1.512l4.144-0.56c0.224-0.056,0.392-0.056,0.56-0.056c0.56,0,0.952,0.224,0.952,1.12l0,13.776c1.792-1.568,4.48-2.744,7.392-2.744c3.08,0,5.376,1.008,7.168,2.632c2.968,2.632,4.256,7,4.256,11.704z M121.828,116.744c0-4.536-1.4-8.68-6.048-8.68c-2.072,0-4.256,1.12-5.768,2.52l0,11.984c1.344,1.512,3.416,2.744,5.488,2.744c4.872,0,6.328-4.2,6.328-8.568z M161.392,116.576c0,1.344-0.448,1.624-1.848,1.624l-16.408,0c0.448,4.312,3.584,7.28,8.008,7.28c2.352,0,4.816-0.56,6.888-1.344c0.224-0.056,0.392-0.168,0.616-0.168c0.392,0,0.672,0.224,0.784,0.672l0.784,2.856c0.056,0.28,0.112,0.504,0.112,0.672c0,0.392-0.224,0.672-0.896,0.952c-2.744,1.232-6.496,1.792-9.408,1.792c-8.792,0-14-5.6-14-14.336c0-8.4,5.544-14.224,13.888-14.224c3.416,0,6.216,1.288,8.176,3.36c2.576,2.688,3.304,6.216,3.304,10.024l0,0.84z M154.728,113.776l0-0.616c-0.112-2.912-1.792-5.6-5.208-5.6c-3.64,0-5.824,2.912-6.272,6.216l11.48,0z M193.956,128.84c0,0.952-0.56,1.4-1.232,1.4l-3.64,0c-0.896,0-1.288-0.448-1.344-1.12l-0.112-1.512c-1.568,1.792-4.704,3.304-7.616,3.304c-8.12,0-11.816-6.44-11.816-13.944c0-7.84,4.368-14.672,12.264-14.672c2.52,0,5.152,1.008,6.72,2.632l0-12.6c0-1.008,0.28-1.4,1.176-1.512l4.144-0.56c0.056,0,0.504-0.056,0.56-0.056c0.672,0,0.896,0.28,0.896,1.12l0,37.52z M187.18,122.624l0-12.152c-1.12-1.512-3.248-2.744-5.376-2.744c-4.536,0-6.552,4.256-6.552,8.848s1.68,8.848,6.216,8.848c2.072,0,4.592-1.4,5.712-2.8z M262.612,128.728c0.056,0.952-0.224,1.512-1.288,1.512l-4.536,0c-1.176,0-1.4-0.56-1.456-1.848l-0.784-22.736l-0.112,0l-9.52,23.576c-0.336,0.896-0.896,1.008-1.512,1.008l-1.96,0c-0.84,0-1.344-0.168-1.736-1.064l-10.584-23.52l-0.112,0l-0.504,23.184c0,1.232-0.504,1.4-1.512,1.4l-3.808,0c-1.064,0-1.512-0.392-1.456-1.456l1.4-35.784c0.056-1.176,0.448-1.512,1.344-1.512l3.304,0c1.12,0,1.512,0.392,1.904,1.232l12.936,27.664l0.112,0l11.816-27.664c0.336-0.84,0.784-1.232,1.792-1.232l3.304,0c0.896,0,1.232,0.336,1.288,1.232z M297.192,116.576c0,1.344-0.448,1.624-1.848,1.624l-16.408,0c0.448,4.312,3.584,7.28,8.008,7.28c2.352,0,4.816-0.56,6.888-1.344c0.224-0.056,0.392-0.168,0.616-0.168c0.392,0,0.672,0.224,0.784,0.672l0.784,2.856c0.056,0.28,0.112,0.504,0.112,0.672c0,0.392-0.224,0.672-0.896,0.952c-2.744,1.232-6.496,1.792-9.408,1.792c-8.792,0-14-5.6-14-14.336c0-8.4,5.544-14.224,13.888-14.224c3.416,0,6.216,1.288,8.176,3.36c2.576,2.688,3.304,6.216,3.304,10.024l0,0.84z M290.528,113.776l0-0.616c-0.112-2.912-1.792-5.6-5.208-5.6c-3.64,0-5.824,2.912-6.272,6.216l11.48,0z M323.708,122.232c0,5.88-5.096,8.68-10.808,8.68c-2.912,0-6.104-0.84-8.624-1.96c-0.504-0.224-0.672-0.56-0.672-0.896c0-0.168,0.056-0.336,0.112-0.504l0.896-2.856c0.168-0.56,0.448-0.784,0.784-0.784c0.168,0,0.336,0,0.616,0.112c2.464,1.008,5.096,1.736,7.056,1.736c2.464,0,4.144-1.12,4.144-2.968c0-1.568-1.064-2.408-3.36-3.304l-4.424-1.68c-3.192-1.176-5.768-3.64-5.768-7.448c0-5.488,5.152-8.008,10.136-8.008c2.688,0,5.32,0.448,8.12,1.68c0.448,0.224,0.672,0.448,0.672,0.784c0,0.168-0.056,0.336-0.112,0.56l-0.952,3.024c-0.112,0.392-0.392,0.616-0.784,0.616c-0.168,0-0.392-0.056-0.56-0.112c-1.848-0.728-4.256-1.344-6.048-1.344c-2.352,0-3.528,1.288-3.528,2.576c0,1.232,0.616,2.016,2.744,2.856l5.04,2.072c2.968,1.232,5.32,3.528,5.32,7.168z M350.168,91.712c0,0.28-0.056,0.616-0.112,0.952l-0.392,2.352c-0.112,0.504-0.28,0.84-0.728,0.84c-0.224,0-0.392-0.056-0.616-0.112c-1.12-0.392-2.464-0.728-3.808-0.728c-3.36,0-4.088,2.24-4.088,5.488l0,2.576l6.216,0c0.672,0,1.12,0.224,1.12,0.952l0,2.632c0,0.728-0.448,1.064-1.12,1.064l-6.216,0l0,20.944c0,1.008-0.336,1.568-1.4,1.568l-4.032,0c-0.952,0-1.344-0.504-1.344-1.456l0-21.056l-3.024,0c-1.008,0-1.176-0.224-1.176-1.4l0-2.128c0-0.672,0.336-1.12,1.064-1.12l3.136,0l0-1.512c0-1.848,0.168-3.304,0.392-4.536c0.896-4.704,3.864-7.56,9.464-7.56c1.848,0,4.312,0.448,5.936,1.176c0.56,0.224,0.728,0.56,0.728,1.064z M363.244,95.968c0,2.184-1.904,3.528-3.752,3.528s-3.808-1.232-3.808-3.472s1.848-3.584,3.808-3.584c1.904,0,3.752,1.288,3.752,3.528z M362.908,128.84c0,1.008-0.448,1.4-1.4,1.4l-3.92,0c-1.008,0-1.456-0.392-1.456-1.4l0-24.472c0-0.952,0.56-1.288,1.456-1.288l3.92,0c0.896,0,1.4,0.28,1.4,1.288l0,24.472z M397.992,128.784c0,0.952-0.336,1.456-1.344,1.456l-4.032,0c-1.008,0-1.344-0.504-1.344-1.456l0-15.232c0-3.08-0.84-5.264-4.256-5.264c-2.184,0-4.872,1.176-6.608,2.688l0,17.864c0,0.952-0.392,1.4-1.344,1.4l-4.088,0c-0.84,0-1.344-0.448-1.344-1.344l0-24.416c0-0.896,0.392-1.4,1.4-1.4l3.64,0c0.784,0,1.288,0.224,1.344,1.064l0.056,1.456c2.576-2.072,5.824-3.248,9.072-3.248c6.272,0,8.848,3.92,8.848,10.024l0,16.408z"/><path fill="#" d=""/></svg>
